<mxfile host="app.diagrams.net" modified="2023-06-19T12:55:01.523Z" agent="Mozilla/5.0 (Windows NT 10.0; Win64; x64) AppleWebKit/537.36 (KHTML, like Gecko) Chrome/114.0.0.0 Safari/537.36" etag="ZKbN9-8FgJdHJ5CCXBUq" version="21.5.0" type="device">
  <diagram name="Page-1" id="GrkQvOvBJdedfOLAO38x">
    <mxGraphModel dx="1912" dy="985" grid="1" gridSize="10" guides="1" tooltips="1" connect="1" arrows="1" fold="1" page="1" pageScale="1" pageWidth="850" pageHeight="1100" math="0" shadow="0">
      <root>
        <mxCell id="0" />
        <mxCell id="1" parent="0" />
        <mxCell id="NpIUfgD3lTJgSAB7WC6j-1" value="" style="edgeStyle=orthogonalEdgeStyle;rounded=0;orthogonalLoop=1;jettySize=auto;html=1;" edge="1" parent="1" source="NpIUfgD3lTJgSAB7WC6j-4">
          <mxGeometry relative="1" as="geometry">
            <mxPoint x="990" y="220" as="targetPoint" />
          </mxGeometry>
        </mxCell>
        <mxCell id="NpIUfgD3lTJgSAB7WC6j-2" value="" style="edgeStyle=orthogonalEdgeStyle;rounded=0;orthogonalLoop=1;jettySize=auto;html=1;" edge="1" parent="1" source="NpIUfgD3lTJgSAB7WC6j-4">
          <mxGeometry relative="1" as="geometry">
            <mxPoint x="800" y="220" as="targetPoint" />
          </mxGeometry>
        </mxCell>
        <mxCell id="NpIUfgD3lTJgSAB7WC6j-3" value="" style="edgeStyle=orthogonalEdgeStyle;rounded=0;orthogonalLoop=1;jettySize=auto;html=1;" edge="1" parent="1" source="NpIUfgD3lTJgSAB7WC6j-4">
          <mxGeometry relative="1" as="geometry">
            <mxPoint x="610" y="220" as="targetPoint" />
          </mxGeometry>
        </mxCell>
        <mxCell id="NpIUfgD3lTJgSAB7WC6j-4" value="Start" style="ellipse;whiteSpace=wrap;html=1;" vertex="1" parent="1">
          <mxGeometry x="735" y="70" width="130" height="80" as="geometry" />
        </mxCell>
        <mxCell id="NpIUfgD3lTJgSAB7WC6j-5" value="" style="edgeStyle=orthogonalEdgeStyle;rounded=0;orthogonalLoop=1;jettySize=auto;html=1;" edge="1" parent="1" source="NpIUfgD3lTJgSAB7WC6j-6" target="NpIUfgD3lTJgSAB7WC6j-19">
          <mxGeometry relative="1" as="geometry" />
        </mxCell>
        <mxCell id="NpIUfgD3lTJgSAB7WC6j-6" value="Input Number" style="shape=parallelogram;perimeter=parallelogramPerimeter;whiteSpace=wrap;html=1;fixedSize=1;" vertex="1" parent="1">
          <mxGeometry x="540" y="220" width="130" height="60" as="geometry" />
        </mxCell>
        <mxCell id="NpIUfgD3lTJgSAB7WC6j-7" value="" style="edgeStyle=orthogonalEdgeStyle;rounded=0;orthogonalLoop=1;jettySize=auto;html=1;" edge="1" parent="1" source="NpIUfgD3lTJgSAB7WC6j-8" target="NpIUfgD3lTJgSAB7WC6j-21">
          <mxGeometry relative="1" as="geometry" />
        </mxCell>
        <mxCell id="NpIUfgD3lTJgSAB7WC6j-8" value="Input Number" style="shape=parallelogram;perimeter=parallelogramPerimeter;whiteSpace=wrap;html=1;fixedSize=1;" vertex="1" parent="1">
          <mxGeometry x="735" y="220" width="130" height="60" as="geometry" />
        </mxCell>
        <mxCell id="NpIUfgD3lTJgSAB7WC6j-9" value="" style="edgeStyle=orthogonalEdgeStyle;rounded=0;orthogonalLoop=1;jettySize=auto;html=1;" edge="1" parent="1" source="NpIUfgD3lTJgSAB7WC6j-23" target="NpIUfgD3lTJgSAB7WC6j-13">
          <mxGeometry relative="1" as="geometry">
            <Array as="points">
              <mxPoint x="985" y="380" />
              <mxPoint x="985" y="380" />
            </Array>
          </mxGeometry>
        </mxCell>
        <mxCell id="NpIUfgD3lTJgSAB7WC6j-10" value="Input Number" style="shape=parallelogram;perimeter=parallelogramPerimeter;whiteSpace=wrap;html=1;fixedSize=1;" vertex="1" parent="1">
          <mxGeometry x="920" y="220" width="130" height="60" as="geometry" />
        </mxCell>
        <mxCell id="NpIUfgD3lTJgSAB7WC6j-11" value="Run factorial subroutine" style="whiteSpace=wrap;html=1;" vertex="1" parent="1">
          <mxGeometry x="545" y="400" width="120" height="60" as="geometry" />
        </mxCell>
        <mxCell id="NpIUfgD3lTJgSAB7WC6j-12" value="Run prime number subroutine" style="whiteSpace=wrap;html=1;" vertex="1" parent="1">
          <mxGeometry x="740" y="400" width="120" height="60" as="geometry" />
        </mxCell>
        <mxCell id="NpIUfgD3lTJgSAB7WC6j-13" value="Run fibonacci sequence subroutine" style="whiteSpace=wrap;html=1;" vertex="1" parent="1">
          <mxGeometry x="925" y="400" width="120" height="60" as="geometry" />
        </mxCell>
        <mxCell id="NpIUfgD3lTJgSAB7WC6j-58" value="" style="edgeStyle=orthogonalEdgeStyle;rounded=0;orthogonalLoop=1;jettySize=auto;html=1;" edge="1" parent="1" source="NpIUfgD3lTJgSAB7WC6j-15" target="NpIUfgD3lTJgSAB7WC6j-56">
          <mxGeometry relative="1" as="geometry" />
        </mxCell>
        <mxCell id="NpIUfgD3lTJgSAB7WC6j-15" value="Start factorial(n);" style="ellipse;whiteSpace=wrap;html=1;" vertex="1" parent="1">
          <mxGeometry x="240" y="650" width="120" height="80" as="geometry" />
        </mxCell>
        <mxCell id="NpIUfgD3lTJgSAB7WC6j-18" value="" style="edgeStyle=orthogonalEdgeStyle;rounded=0;orthogonalLoop=1;jettySize=auto;html=1;" edge="1" parent="1" source="NpIUfgD3lTJgSAB7WC6j-19" target="NpIUfgD3lTJgSAB7WC6j-11">
          <mxGeometry relative="1" as="geometry" />
        </mxCell>
        <mxCell id="NpIUfgD3lTJgSAB7WC6j-19" value="Press submit button" style="whiteSpace=wrap;html=1;" vertex="1" parent="1">
          <mxGeometry x="545" y="310" width="120" height="60" as="geometry" />
        </mxCell>
        <mxCell id="NpIUfgD3lTJgSAB7WC6j-20" value="" style="edgeStyle=orthogonalEdgeStyle;rounded=0;orthogonalLoop=1;jettySize=auto;html=1;" edge="1" parent="1" source="NpIUfgD3lTJgSAB7WC6j-21" target="NpIUfgD3lTJgSAB7WC6j-12">
          <mxGeometry relative="1" as="geometry" />
        </mxCell>
        <mxCell id="NpIUfgD3lTJgSAB7WC6j-21" value="Press submit button" style="whiteSpace=wrap;html=1;" vertex="1" parent="1">
          <mxGeometry x="740" y="310" width="120" height="60" as="geometry" />
        </mxCell>
        <mxCell id="NpIUfgD3lTJgSAB7WC6j-22" value="" style="edgeStyle=orthogonalEdgeStyle;rounded=0;orthogonalLoop=1;jettySize=auto;html=1;" edge="1" parent="1" source="NpIUfgD3lTJgSAB7WC6j-10" target="NpIUfgD3lTJgSAB7WC6j-23">
          <mxGeometry relative="1" as="geometry">
            <mxPoint x="985" y="280" as="sourcePoint" />
            <mxPoint x="985" y="410" as="targetPoint" />
            <Array as="points" />
          </mxGeometry>
        </mxCell>
        <mxCell id="NpIUfgD3lTJgSAB7WC6j-23" value="Press submit button" style="whiteSpace=wrap;html=1;" vertex="1" parent="1">
          <mxGeometry x="925" y="310" width="120" height="60" as="geometry" />
        </mxCell>
        <mxCell id="NpIUfgD3lTJgSAB7WC6j-44" value="Return answer" style="whiteSpace=wrap;html=1;" vertex="1" parent="1">
          <mxGeometry x="390" y="990" width="120" height="60" as="geometry" />
        </mxCell>
        <mxCell id="NpIUfgD3lTJgSAB7WC6j-45" value="" style="edgeStyle=orthogonalEdgeStyle;rounded=0;orthogonalLoop=1;jettySize=auto;html=1;" edge="1" parent="1" source="NpIUfgD3lTJgSAB7WC6j-47" target="NpIUfgD3lTJgSAB7WC6j-44">
          <mxGeometry relative="1" as="geometry" />
        </mxCell>
        <mxCell id="NpIUfgD3lTJgSAB7WC6j-46" value="" style="edgeStyle=orthogonalEdgeStyle;rounded=0;orthogonalLoop=1;jettySize=auto;html=1;" edge="1" parent="1" source="NpIUfgD3lTJgSAB7WC6j-47" target="NpIUfgD3lTJgSAB7WC6j-48">
          <mxGeometry relative="1" as="geometry" />
        </mxCell>
        <mxCell id="NpIUfgD3lTJgSAB7WC6j-47" value="n == 1" style="rhombus;whiteSpace=wrap;html=1;" vertex="1" parent="1">
          <mxGeometry x="260" y="880" width="80" height="80" as="geometry" />
        </mxCell>
        <mxCell id="NpIUfgD3lTJgSAB7WC6j-48" value="Return n * factorial(n-1)" style="whiteSpace=wrap;html=1;" vertex="1" parent="1">
          <mxGeometry x="90" y="990" width="130" height="60" as="geometry" />
        </mxCell>
        <mxCell id="NpIUfgD3lTJgSAB7WC6j-51" value="True" style="text;html=1;align=center;verticalAlign=middle;resizable=0;points=[];autosize=1;strokeColor=none;fillColor=none;" vertex="1" parent="1">
          <mxGeometry x="340" y="880" width="50" height="30" as="geometry" />
        </mxCell>
        <mxCell id="NpIUfgD3lTJgSAB7WC6j-52" value="False" style="text;html=1;align=center;verticalAlign=middle;resizable=0;points=[];autosize=1;strokeColor=none;fillColor=none;" vertex="1" parent="1">
          <mxGeometry x="210" y="880" width="50" height="30" as="geometry" />
        </mxCell>
        <mxCell id="NpIUfgD3lTJgSAB7WC6j-60" value="" style="edgeStyle=orthogonalEdgeStyle;rounded=0;orthogonalLoop=1;jettySize=auto;html=1;" edge="1" parent="1" source="NpIUfgD3lTJgSAB7WC6j-53" target="NpIUfgD3lTJgSAB7WC6j-57">
          <mxGeometry relative="1" as="geometry" />
        </mxCell>
        <mxCell id="NpIUfgD3lTJgSAB7WC6j-53" value="Start Prime(n);" style="ellipse;whiteSpace=wrap;html=1;" vertex="1" parent="1">
          <mxGeometry x="750" y="550" width="120" height="80" as="geometry" />
        </mxCell>
        <mxCell id="NpIUfgD3lTJgSAB7WC6j-59" value="" style="edgeStyle=orthogonalEdgeStyle;rounded=0;orthogonalLoop=1;jettySize=auto;html=1;" edge="1" parent="1" source="NpIUfgD3lTJgSAB7WC6j-56" target="NpIUfgD3lTJgSAB7WC6j-47">
          <mxGeometry relative="1" as="geometry" />
        </mxCell>
        <mxCell id="NpIUfgD3lTJgSAB7WC6j-56" value="Receive input (passed down variable n)" style="whiteSpace=wrap;html=1;" vertex="1" parent="1">
          <mxGeometry x="240" y="760" width="120" height="60" as="geometry" />
        </mxCell>
        <mxCell id="NpIUfgD3lTJgSAB7WC6j-64" value="" style="edgeStyle=orthogonalEdgeStyle;rounded=0;orthogonalLoop=1;jettySize=auto;html=1;" edge="1" parent="1" source="NpIUfgD3lTJgSAB7WC6j-57" target="NpIUfgD3lTJgSAB7WC6j-62">
          <mxGeometry relative="1" as="geometry" />
        </mxCell>
        <mxCell id="NpIUfgD3lTJgSAB7WC6j-57" value="Receive input (passed down variable n)" style="whiteSpace=wrap;html=1;" vertex="1" parent="1">
          <mxGeometry x="750" y="670" width="120" height="60" as="geometry" />
        </mxCell>
        <mxCell id="NpIUfgD3lTJgSAB7WC6j-69" value="" style="edgeStyle=orthogonalEdgeStyle;rounded=0;orthogonalLoop=1;jettySize=auto;html=1;" edge="1" parent="1" source="NpIUfgD3lTJgSAB7WC6j-61" target="NpIUfgD3lTJgSAB7WC6j-66">
          <mxGeometry relative="1" as="geometry" />
        </mxCell>
        <mxCell id="NpIUfgD3lTJgSAB7WC6j-70" value="" style="edgeStyle=orthogonalEdgeStyle;rounded=0;orthogonalLoop=1;jettySize=auto;html=1;" edge="1" parent="1" source="NpIUfgD3lTJgSAB7WC6j-61" target="NpIUfgD3lTJgSAB7WC6j-68">
          <mxGeometry relative="1" as="geometry" />
        </mxCell>
        <mxCell id="NpIUfgD3lTJgSAB7WC6j-61" value="if 2 &amp;lt; i &amp;lt;&amp;nbsp; n//2" style="rhombus;whiteSpace=wrap;html=1;" vertex="1" parent="1">
          <mxGeometry x="742.5" y="880" width="135" height="80" as="geometry" />
        </mxCell>
        <mxCell id="NpIUfgD3lTJgSAB7WC6j-65" value="" style="edgeStyle=orthogonalEdgeStyle;rounded=0;orthogonalLoop=1;jettySize=auto;html=1;" edge="1" parent="1" source="NpIUfgD3lTJgSAB7WC6j-62" target="NpIUfgD3lTJgSAB7WC6j-61">
          <mxGeometry relative="1" as="geometry" />
        </mxCell>
        <mxCell id="NpIUfgD3lTJgSAB7WC6j-62" value="int i = 0" style="whiteSpace=wrap;html=1;" vertex="1" parent="1">
          <mxGeometry x="750" y="780" width="120" height="60" as="geometry" />
        </mxCell>
        <mxCell id="NpIUfgD3lTJgSAB7WC6j-66" value="return False" style="whiteSpace=wrap;html=1;" vertex="1" parent="1">
          <mxGeometry x="565" y="990" width="120" height="60" as="geometry" />
        </mxCell>
        <mxCell id="NpIUfgD3lTJgSAB7WC6j-68" value="return True" style="whiteSpace=wrap;html=1;" vertex="1" parent="1">
          <mxGeometry x="935" y="990" width="120" height="60" as="geometry" />
        </mxCell>
        <mxCell id="NpIUfgD3lTJgSAB7WC6j-71" value="True" style="text;html=1;align=center;verticalAlign=middle;resizable=0;points=[];autosize=1;strokeColor=none;fillColor=none;" vertex="1" parent="1">
          <mxGeometry x="845" y="870" width="50" height="30" as="geometry" />
        </mxCell>
        <mxCell id="NpIUfgD3lTJgSAB7WC6j-72" value="False" style="text;html=1;align=center;verticalAlign=middle;resizable=0;points=[];autosize=1;strokeColor=none;fillColor=none;" vertex="1" parent="1">
          <mxGeometry x="715" y="870" width="50" height="30" as="geometry" />
        </mxCell>
        <mxCell id="NpIUfgD3lTJgSAB7WC6j-73" value="" style="edgeStyle=orthogonalEdgeStyle;rounded=0;orthogonalLoop=1;jettySize=auto;html=1;" edge="1" parent="1" source="NpIUfgD3lTJgSAB7WC6j-74" target="NpIUfgD3lTJgSAB7WC6j-76">
          <mxGeometry relative="1" as="geometry" />
        </mxCell>
        <mxCell id="NpIUfgD3lTJgSAB7WC6j-74" value="Start Fibonacci(n);" style="ellipse;whiteSpace=wrap;html=1;" vertex="1" parent="1">
          <mxGeometry x="1285" y="665" width="120" height="80" as="geometry" />
        </mxCell>
        <mxCell id="NpIUfgD3lTJgSAB7WC6j-76" value="Receive input (passed down variable n)" style="whiteSpace=wrap;html=1;" vertex="1" parent="1">
          <mxGeometry x="1285" y="785" width="120" height="60" as="geometry" />
        </mxCell>
        <mxCell id="NpIUfgD3lTJgSAB7WC6j-77" value="" style="edgeStyle=orthogonalEdgeStyle;rounded=0;orthogonalLoop=1;jettySize=auto;html=1;" edge="1" parent="1" source="NpIUfgD3lTJgSAB7WC6j-79" target="NpIUfgD3lTJgSAB7WC6j-82">
          <mxGeometry relative="1" as="geometry" />
        </mxCell>
        <mxCell id="NpIUfgD3lTJgSAB7WC6j-78" value="" style="edgeStyle=orthogonalEdgeStyle;rounded=0;orthogonalLoop=1;jettySize=auto;html=1;" edge="1" parent="1" source="NpIUfgD3lTJgSAB7WC6j-79" target="NpIUfgD3lTJgSAB7WC6j-83">
          <mxGeometry relative="1" as="geometry" />
        </mxCell>
        <mxCell id="NpIUfgD3lTJgSAB7WC6j-79" value="if n &amp;lt;= 2" style="rhombus;whiteSpace=wrap;html=1;" vertex="1" parent="1">
          <mxGeometry x="1277.5" y="880" width="135" height="80" as="geometry" />
        </mxCell>
        <mxCell id="NpIUfgD3lTJgSAB7WC6j-80" value="" style="edgeStyle=orthogonalEdgeStyle;rounded=0;orthogonalLoop=1;jettySize=auto;html=1;" edge="1" parent="1" target="NpIUfgD3lTJgSAB7WC6j-79">
          <mxGeometry relative="1" as="geometry">
            <mxPoint x="1345" y="840" as="sourcePoint" />
          </mxGeometry>
        </mxCell>
        <mxCell id="NpIUfgD3lTJgSAB7WC6j-82" value="return(Fibonacci(n-1) + Fibonacci(n-2))" style="whiteSpace=wrap;html=1;" vertex="1" parent="1">
          <mxGeometry x="1105" y="990" width="120" height="60" as="geometry" />
        </mxCell>
        <mxCell id="NpIUfgD3lTJgSAB7WC6j-83" value="return 1" style="whiteSpace=wrap;html=1;" vertex="1" parent="1">
          <mxGeometry x="1470" y="990" width="120" height="60" as="geometry" />
        </mxCell>
        <mxCell id="NpIUfgD3lTJgSAB7WC6j-84" value="True" style="text;html=1;align=center;verticalAlign=middle;resizable=0;points=[];autosize=1;strokeColor=none;fillColor=none;" vertex="1" parent="1">
          <mxGeometry x="1380" y="870" width="50" height="30" as="geometry" />
        </mxCell>
        <mxCell id="NpIUfgD3lTJgSAB7WC6j-85" value="False" style="text;html=1;align=center;verticalAlign=middle;resizable=0;points=[];autosize=1;strokeColor=none;fillColor=none;" vertex="1" parent="1">
          <mxGeometry x="1250" y="870" width="50" height="30" as="geometry" />
        </mxCell>
      </root>
    </mxGraphModel>
  </diagram>
</mxfile>
